PathFileType	4	(X/Y/Z)	 s08c0102.trc
DataRate	CameraRate	NumFrames	NumMarkers	Units	OrigDataRate	OrigDataStartFrame	OrigNumFrames
200	200	4	50	mm	200	1001	2000
Frame#	Time	racr			lacr			c7			jug			rlel			rdr			llel			ldr			s2			lic			ric			lasi			rasi			rpsi			lpsi			rgt			lgt			rth1			rth2			rth3			rth4			rlfc			rmfc			rsh1			rsh2			rsh3			rsh4			rlmal			rmmal			rcal			rtoe			rmt5			lth1			lth2			lth4			lth3			llfc			lmfc			llmal			lmmal			lcal			lmt5			lsh1			lsh2			lsh3			lsh4			ltoe			SBIKE			LBIKE			RBIKE			
		X1	Y1	Z1	X2	Y2	Z2	X3	Y3	Z3	X4	Y4	Z4	X5	Y5	Z5	X6	Y6	Z6	X7	Y7	Z7	X8	Y8	Z8	X9	Y9	Z9	X10	Y10	Z10	X11	Y11	Z11	X12	Y12	Z12	X13	Y13	Z13	X14	Y14	Z14	X15	Y15	Z15	X16	Y16	Z16	X17	Y17	Z17	X18	Y18	Z18	X19	Y19	Z19	X20	Y20	Z20	X21	Y21	Z21	X22	Y22	Z22	X23	Y23	Z23	X24	Y24	Z24	X25	Y25	Z25	X26	Y26	Z26	X27	Y27	Z27	X28	Y28	Z28	X29	Y29	Z29	X30	Y30	Z30	X31	Y31	Z31	X32	Y32	Z32	X33	Y33	Z33	X34	Y34	Z34	X35	Y35	Z35	X36	Y36	Z36	X37	Y37	Z37	X38	Y38	Z38	X39	Y39	Z39	X40	Y40	Z40	X41	Y41	Z41	X42	Y42	Z42	X43	Y43	Z43	X44	Y44	Z44	X45	Y45	Z45	X46	Y46	Z46	X47	Y47	Z47	X48	Y48	Z48	X49	Y49	Z49	X50	Y50	Z50	
1001	5.0050	598.111978	1327.878153	-104.060288	566.436111	1368.137491	-398.361824	548.324007	1409.854127	-245.241952	541.629449	1250.948749	-260.099170	612.347086	1098.482735	43.937809	802.497618	889.940062	-33.516202	587.185183	1100.470525	-492.606016	805.431322	919.870827	-409.283964	-15.501584	1219.470391	-196.580559	128.523192	1225.981443	-355.123885	157.928477	1208.324557	-43.483594	162.772765	1188.276202	-315.690514	172.534857	1154.575122	-79.889913	20.024204	1256.847791	-139.849209	12.017112	1269.214221	-232.800095	71.431657	1092.425097	-16.108025	90.009260	1127.511092	-391.872779	190.784976	967.699747	-18.710961	262.908356	916.104080	-25.966065	297.508326	836.272264	-33.196191	288.720256	938.133978	-40.720243	356.260100	738.247019	-49.341944	331.002830	730.596617	-159.805853	255.901785	649.314587	-20.641223	223.905485	567.715417	-42.628115	157.333892	514.109174	-48.245953	249.829788	555.018085	-70.319372	77.637745	425.747744	-56.744133	101.793027	435.904281	-144.941381	3.684849	447.804026	-106.165236	225.825915	250.377261	-98.113761	136.556964	283.121420	-33.994277	187.054131	1032.559307	-402.336376	266.601279	996.891800	-400.249653	289.070433	1023.742614	-388.465447	318.293849	924.603088	-402.593699	402.000796	821.716764	-382.598700	406.247366	791.858850	-275.496204	324.160540	405.486833	-393.783502	348.171955	426.634842	-306.399558	255.971174	370.474498	-357.439728	470.065066	341.834112	-413.650258	381.358463	693.662863	-408.952788	385.806003	608.931031	-394.619660	349.569205	529.057064	-398.114381	407.470599	607.910208	-361.471401	545.638690	384.000474	-344.302569	-138.861753	941.847555	-221.084389	21.160903	84.114161	-425.999355	13.289951	79.821102	-27.853139	
1002	5.0100	597.907496	1325.430535	-101.837826	567.467082	1366.363162	-397.544946	549.208201	1407.795467	-244.424897	541.518401	1248.896274	-258.841385	611.620297	1096.463581	46.151923	802.513567	889.826751	-32.724049	588.006283	1099.063580	-492.947690	805.684759	918.167198	-407.801399	-14.651196	1217.566426	-198.245210	129.900201	1222.980412	-356.953471	158.003955	1206.832205	-44.739459	163.967602	1184.916408	-317.460574	171.884541	1153.049220	-81.391108	20.516486	1255.389712	-141.533471	13.165810	1266.896856	-234.663008	72.183034	1090.962001	-17.064023	90.491148	1122.299192	-393.059983	193.311779	968.065177	-18.579096	266.965552	918.501697	-25.265312	303.569478	839.372336	-33.022949	292.267357	941.339634	-39.301165	363.483475	743.153775	-49.806534	338.410123	734.932981	-160.228264	261.719582	656.308729	-20.630070	227.781633	575.262849	-42.620140	160.065430	523.185579	-48.134094	253.783313	562.203262	-70.165177	78.562272	436.598007	-56.508705	102.871600	446.305856	-144.690941	5.003423	459.574342	-105.449748	224.670051	259.699451	-98.167307	135.829968	293.556160	-33.874995	186.557029	1025.404958	-403.183856	265.470983	988.470311	-401.065608	288.620443	1015.266251	-390.432222	315.919639	915.273334	-402.757958	398.532284	811.803914	-382.728599	402.069414	782.083682	-275.696623	325.130162	394.866783	-393.919723	348.925681	415.979803	-306.309816	257.178812	360.193108	-357.507231	471.337036	330.969398	-413.374737	378.881537	683.266366	-409.429671	384.506370	598.660573	-394.688738	349.375341	518.242570	-398.104529	406.075481	597.963572	-361.329896	546.863444	372.825391	-343.833953	-138.959731	941.829802	-220.878845	21.210984	84.157147	-425.974649	13.324440	79.839185	-27.832754	
1003	5.0150	597.402644	1323.268164	-99.229871	568.492954	1364.629213	-396.651375	549.938169	1405.888148	-243.399203	541.281787	1246.988509	-257.231914	610.690179	1094.579539	48.992014	802.279394	889.950117	-32.027253	589.788399	1097.925085	-493.115397	805.862227	916.838789	-407.014024	-13.696233	1215.990751	-200.345255	131.503310	1219.949942	-359.015931	157.876670	1205.560656	-46.088702	165.337145	1181.506460	-319.459512	171.912196	1151.917822	-82.442303	20.946427	1253.885580	-143.557220	14.698345	1264.417125	-237.036747	72.918274	1089.886634	-18.195167	91.186360	1117.025433	-394.253806	196.052721	968.812829	-18.504223	270.912431	920.971859	-25.437164	309.650393	842.968759	-33.062887	295.869587	944.715527	-38.620486	370.960078	748.500496	-50.187823	341.931717	741.462200	-163.332828	267.849367	663.359146	-20.609327	232.141614	583.156934	-42.678103	163.261107	532.342852	-48.166634	257.775489	569.241521	-70.232380	80.199605	447.517824	-56.287039	104.764612	457.214065	-143.019092	6.701096	471.558857	-105.063263	224.070624	269.304717	-97.998807	135.791242	303.899807	-33.831404	186.205247	1018.333084	-404.251246	264.486372	980.023835	-401.853400	287.870157	1006.294246	-391.038932	313.682773	905.954814	-402.833530	394.933486	801.756358	-382.803826	397.789296	772.290861	-275.915734	325.537272	384.454990	-394.080380	350.563959	406.983082	-308.059350	257.864968	350.211507	-357.580493	471.926651	320.000686	-413.132332	376.256809	672.766246	-409.320641	382.839098	588.388078	-394.723205	348.496727	507.259165	-397.440684	404.371783	588.035419	-361.363786	547.395360	361.538860	-343.536495	-139.022048	941.816725	-220.736518	21.235887	84.174343	-425.953018	13.335728	79.820147	-27.801466	
1004	5.0200	596.637191	1321.389782	-96.297397	569.650105	1363.114091	-395.986000	550.577263	1404.186648	-242.090248	541.071884	1245.287612	-255.340453	609.285399	1093.032505	51.548536	801.870509	890.198762	-31.519762	592.200071	1097.155925	-493.079835	806.157775	915.452750	-406.643809	-12.743751	1214.265007	-202.723328	133.483271	1216.818438	-361.225757	157.572518	1204.624556	-47.442039	167.004562	1177.948060	-321.015262	171.976910	1150.871388	-83.771535	20.969764	1252.628022	-145.483780	16.450897	1262.015240	-240.011123	73.518543	1089.539667	-18.989931	92.087289	1111.688191	-395.530989	198.951650	970.035152	-18.583958	275.144555	924.378107	-24.725564	315.845344	847.372170	-33.035601	299.448070	948.535842	-38.088713	378.230987	753.969145	-50.543805	349.783940	746.859931	-163.655053	274.133824	670.555680	-20.752381	236.802074	591.115630	-42.861303	166.964570	541.717023	-48.254299	261.964096	576.611127	-70.374590	82.339912	458.584742	-56.255047	107.391249	467.539689	-142.958308	8.650225	483.511470	-105.117299	224.248216	279.120696	-98.038827	136.319683	314.603560	-33.781170	186.126865	1011.316982	-405.386339	263.692943	971.663103	-402.665385	287.567929	997.594088	-392.277761	311.494579	896.688445	-403.060429	391.286751	791.666571	-382.920071	393.390828	762.520150	-276.212610	325.471293	374.188879	-394.311910	361.955841	405.977208	-321.650425	258.038139	340.475691	-357.753741	471.928599	308.915775	-412.966021	373.332486	662.479647	-409.439888	380.822512	578.263437	-394.907590	347.385302	496.695406	-397.516389	402.194434	578.221470	-361.507457	547.467666	350.038070	-343.309916	-139.017236	941.805905	-220.719340	21.281289	84.160580	-425.935187	13.354067	79.834372	-27.801734	
